<?xml version="1.0" encoding="UTF-8"?>
<svg width="49px" height="75px" viewBox="0 0 49 75" version="1.1" xmlns="http://www.w3.org/2000/svg" xmlns:xlink="http://www.w3.org/1999/xlink">
    <!-- Generator: sketchtool 59.1 (101010) - https://sketch.com -->
    <title>5C99E435-397E-4CF0-947C-49A192BB9359</title>
    <desc>Created with sketchtool.</desc>
    <defs>
        <polygon id="path-1" points="0 74.8048611 48.6899 74.8048611 48.6899 -1.42108547e-14 0 -1.42108547e-14"></polygon>
    </defs>
    <g id="Page-1" stroke="none" stroke-width="1" fill="none" fill-rule="evenodd">
        <g id="Home" transform="translate(-725.000000, -2743.000000)">
            <g id="Group-13" transform="translate(720.000000, 2743.000000)">
                <g id="Group-21" transform="translate(5.000000, 0.000000)">
                    <path d="M24.34516,68.4444444 C33.65376,68.4444444 41.42656,61.9375 43.30396,53.2597222 C33.43956,56.7944444 28.98056,57.1229167 18.46586,54.7965278 C12.23306,53.4173611 8.02746,53.1625 5.38426,53.25 C7.25816,61.9326389 15.03306,68.4444444 24.34516,68.4444444" id="Fill-1" fill="#565656"></path>
                    <path d="M31.41418,31.665 L31.41418,23.3275 L17.27628,23.3275 L17.27628,31.665 C10.06208,34.4684722 4.95068,41.4302778 4.95068,49.5809722 C4.95068,60.2073611 13.63418,68.82125 24.34488,68.82125 C35.05628,68.82125 43.73908,60.2073611 43.73908,49.5809722 C43.73908,41.4302778 38.62838,34.4684722 31.41418,31.665 Z" id="Stroke-3" stroke="#565656" stroke-width="1.535"></path>
                    <mask id="mask-2" fill="white">
                        <use xlink:href="#path-1"></use>
                    </mask>
                    <g id="Clip-6"></g>
                    <polygon id="Stroke-5" stroke="#565656" stroke-width="1.535" mask="url(#mask-2)" points="15.407 23.3277778 33.2829 23.3277778 33.2829 20.2493056 15.407 20.2493056"></polygon>
                    <path d="M21.12334,8.54152778 C21.12334,9.26930556 20.52834,9.85958333 19.79474,9.85958333 C19.06044,9.85958333 18.46544,9.26930556 18.46544,8.54152778 C18.46544,7.81305556 19.06044,7.22277778 19.79474,7.22277778 C20.52834,7.22277778 21.12334,7.81305556 21.12334,8.54152778 Z" id="Stroke-7" stroke="#F28F63" stroke-width="1.535" mask="url(#mask-2)"></path>
                    <path d="M28.42413,1.61333333 C28.42413,2.50430556 27.69613,3.22722222 26.79803,3.22722222 C25.89993,3.22722222 25.17123,2.50430556 25.17123,1.61333333 C25.17123,0.722361111 25.89993,0.000138888889 26.79803,0.000138888889 C27.69613,0.000138888889 28.42413,0.722361111 28.42413,1.61333333" id="Fill-8" fill="#565656" mask="url(#mask-2)"></path>
                    <path d="M28.64631,15.7063889 C28.64631,16.8848611 27.68311,17.8404167 26.49521,17.8404167 C25.30661,17.8404167 24.34411,16.8848611 24.34411,15.7063889 C24.34411,14.5279167 25.30661,13.5723611 26.49521,13.5723611 C27.68311,13.5723611 28.64631,14.5279167 28.64631,15.7063889 Z" id="Stroke-9" stroke="#F28F63" stroke-width="1.535" mask="url(#mask-2)"></path>
                    <path d="M23.54058,30.2375 C23.54058,31.0298611 22.89308,31.6722222 22.09508,31.6722222 C21.29568,31.6722222 20.64818,31.0298611 20.64818,30.2375 C20.64818,29.4451389 21.29568,28.8027778 22.09508,28.8027778 C22.89308,28.8027778 23.54058,29.4451389 23.54058,30.2375" id="Fill-10" fill="#565656" mask="url(#mask-2)"></path>
                    <path d="M18.29947,43.2064583 C18.29947,43.9988194 17.65197,44.6411806 16.85397,44.6411806 C16.05527,44.6411806 15.40707,43.9988194 15.40707,43.2064583 C15.40707,42.4140972 16.05527,41.7717361 16.85397,41.7717361 C17.65197,41.7717361 18.29947,42.4140972 18.29947,43.2064583" id="Fill-11" fill="#565656" mask="url(#mask-2)"></path>
                    <path d="M30.33681,39.7982639 C30.33681,41.1378472 29.24201,42.2239583 27.89101,42.2239583 C26.54071,42.2239583 25.44591,41.1378472 25.44591,39.7982639 C25.44591,38.4579861 26.54071,37.371875 27.89101,37.371875 C29.24201,37.371875 30.33681,38.4579861 30.33681,39.7982639 Z" id="Stroke-12" stroke="#F28F63" stroke-width="1.535" mask="url(#mask-2)"></path>
                    <polygon id="Fill-13" fill="#FFFFFF" mask="url(#mask-2)" points="1.6793 51.4166667 47.0106 51.4166667 47.0106 47.7451389 1.6793 47.7451389"></polygon>
                    <polygon id="Stroke-14" stroke="#565656" stroke-width="1.535" mask="url(#mask-2)" points="1.6793 51.4166667 47.0106 51.4166667 47.0106 47.7451389 1.6793 47.7451389"></polygon>
                    <polygon id="Fill-15" fill="#FFFFFF" mask="url(#mask-2)" points="2.88645 74.2719444 0.64785 74.2719444 4.97245 51.4163889 7.21175 51.4163889"></polygon>
                    <polygon id="Stroke-16" stroke="#565656" stroke-width="1.535" mask="url(#mask-2)" points="2.88645 74.2719444 0.64785 74.2719444 4.97245 51.4163889 7.21175 51.4163889"></polygon>
                    <polygon id="Fill-17" fill="#FFFFFF" mask="url(#mask-2)" points="45.80387 74.2719444 48.04247 74.2719444 43.71787 51.4163889 41.47787 51.4163889"></polygon>
                    <polygon id="Stroke-18" stroke="#565656" stroke-width="1.535" mask="url(#mask-2)" points="45.80387 74.2719444 48.04247 74.2719444 43.71787 51.4163889 41.47787 51.4163889"></polygon>
                    <path d="M15.40714,58.4109722 C15.40714,59.0345833 14.89684,59.5408333 14.26824,59.5408333 C13.63964,59.5408333 13.12934,59.0345833 13.12934,58.4109722 C13.12934,57.7866667 13.63964,57.2811111 14.26824,57.2811111 C14.89684,57.2811111 15.40714,57.7866667 15.40714,58.4109722" id="Fill-19" fill="#FFFFFF" mask="url(#mask-2)"></path>
                    <path d="M29.98618,62.9641667 C29.98618,64.1245833 29.03768,65.06625 27.86728,65.06625 C26.69758,65.06625 25.74838,64.1245833 25.74838,62.9641667 C25.74838,61.80375 26.69758,60.8620833 27.86728,60.8620833 C29.03768,60.8620833 29.98618,61.80375 29.98618,62.9641667 Z" id="Stroke-20" stroke="#FFFFFF" stroke-width="1.535" mask="url(#mask-2)"></path>
                </g>
            </g>
        </g>
    </g>
</svg>