<?xml version="1.0" encoding="UTF-8"?>
<svg width="65px" height="72px" viewBox="0 0 65 72" version="1.1" xmlns="http://www.w3.org/2000/svg" xmlns:xlink="http://www.w3.org/1999/xlink">
    <!-- Generator: sketchtool 59.1 (101010) - https://sketch.com -->
    <title>89E954A6-333A-48D4-A804-8A449186056E</title>
    <desc>Created with sketchtool.</desc>
    <g id="Page-1" stroke="none" stroke-width="1" fill="none" fill-rule="evenodd">
        <g id="Home" transform="translate(-719.000000, -2937.000000)">
            <g id="Group-12" transform="translate(720.000000, 2938.000000)">
                <g id="Group-27">
                    <path d="M37.3018705,12.3857143 C37.3018705,7.58928571 34.9765977,3.335 31.3898932,0.682142857 C27.8031886,3.335 25.4786318,7.58928571 25.4786318,12.3857143 C25.4786318,17.1821429 27.8031886,21.4364286 31.3898932,24.0892857 C34.9765977,21.4364286 37.3018705,17.1821429 37.3018705,12.3857143 Z" id="Stroke-1" stroke="#565656" stroke-width="1.535"></path>
                    <path d="M31.4431568,0.682357143 L31.4431568,24.0895 C35.0298614,21.4366429 37.3551341,17.1823571 37.3551341,12.3859286 C37.3551341,7.5895 35.0298614,3.33521429 31.4431568,0.682357143" id="Fill-3" fill="#565656"></path>
                    <path d="M50.347667,27.2532143 C53.7468034,23.8610714 55.1177693,19.2132143 54.4619966,14.8067857 C50.0455534,14.1525 45.386417,15.5203571 41.9872807,18.9117857 C38.5881443,22.3032143 37.2171784,26.9517857 37.8729511,31.3582143 C42.2893943,32.0125 46.9485307,30.6446429 50.347667,27.2532143 Z" id="Stroke-5" stroke="#565656" stroke-width="1.535"></path>
                    <path d="M54.4997966,14.8442143 L37.9107511,31.3956429 C42.3264784,32.0499286 46.9863307,30.6820714 50.385467,27.2906429 C53.7846034,23.8992143 55.1555693,19.2499286 54.4997966,14.8442143" id="Fill-7" fill="#565656"></path>
                    <path d="M20.8086852,25.2896429 C17.4095489,21.8975 12.7504125,20.5296429 8.33396932,21.1846429 C7.67819659,25.5903571 9.0491625,30.2389286 12.4482989,33.6310714 C15.8474352,37.0225 20.5065716,38.3903571 24.9230148,37.7353571 C25.5787875,33.3296429 24.2078216,28.6810714 20.8086852,25.2896429 Z" id="Stroke-9" stroke="#565656" stroke-width="1.535"></path>
                    <path d="M8.3719125,21.1469286 L24.960958,37.6983571 C25.6167307,33.2919286 24.2457648,28.6433571 20.8466284,25.2519286 C17.447492,21.8605 12.7876398,20.4919286 8.3719125,21.1469286" id="Fill-11" fill="#565656"></path>
                    <path d="M31.4431568,24.0758571 L31.4431568,57.1272857" id="Stroke-13" stroke="#565656" stroke-width="1.535"></path>
                    <path d="M31.3900364,37.8945714 L38.0744795,31.226" id="Stroke-15" stroke="#565656" stroke-width="1.535"></path>
                    <path d="M31.4431568,44.3252857 L24.7594295,37.6567143" id="Stroke-17" stroke="#565656" stroke-width="1.535"></path>
                    <path d="M53.6167943,61.4053571 C48.3756239,60.3853571 49.5439875,54.4732143 43.759442,53.5853571 C39.1224989,52.8732143 37.6684875,56.9853571 31.442942,56.9367857 C25.2188284,56.9853571 23.764817,52.8732143 19.127158,53.5853571 C13.3433284,54.4732143 14.511692,60.3853571 9.26980568,61.4053571 C4.38515795,62.3560714 0.828521591,64.2732143 0.574373864,69.9917857 L31.442942,69.9917857 L62.3122261,69.9917857 C62.0587943,64.2732143 58.501442,62.3560714 53.6167943,61.4053571 Z" id="Stroke-19" stroke="#565656" stroke-width="1.535"></path>
                    <path d="M37,61 C37,61.553 36.5522239,62 35.9995002,62 C35.4477761,62 35,61.553 35,61 C35,60.448 35.4477761,60 35.9995002,60 C36.5522239,60 37,60.448 37,61" id="Fill-21" fill="#F28F63"></path>
                    <path d="M43,65 C43,65.552 42.5532234,66 42.0004998,66 C41.4477761,66 41,65.552 41,65 C41,64.447 41.4477761,64 42.0004998,64 C42.5532234,64 43,64.447 43,65" id="Fill-23" fill="#F28F63"></path>
                    <path d="M45.3605375,59.1718571 C45.3605375,59.7248571 44.9137609,60.1718571 44.3610373,60.1718571 C43.8083136,60.1718571 43.3605375,59.7248571 43.3605375,59.1718571 C43.3605375,58.6198571 43.8083136,58.1718571 44.3610373,58.1718571 C44.9137609,58.1718571 45.3605375,58.6198571 45.3605375,59.1718571" id="Fill-25" fill="#F28F63"></path>
                </g>
            </g>
        </g>
    </g>
</svg>