<?xml version="1.0" encoding="UTF-8"?>
<svg width="51px" height="70px" viewBox="0 0 51 70" version="1.1" xmlns="http://www.w3.org/2000/svg" xmlns:xlink="http://www.w3.org/1999/xlink">
    <!-- Generator: sketchtool 59.1 (101010) - https://sketch.com -->
    <title>83104DFE-A78E-4315-803E-8111A3F41394</title>
    <desc>Created with sketchtool.</desc>
    <defs>
        <polygon id="path-1" points="0 69.3577982 49.5698718 69.3577982 49.5698718 0.274862385 0 0.274862385"></polygon>
    </defs>
    <g id="Page-1" stroke="none" stroke-width="1" fill="none" fill-rule="evenodd">
        <g id="Home" transform="translate(-723.000000, -3129.000000)">
            <g id="Group-8" transform="translate(720.000000, 3129.000000)">
                <g id="Group-23" transform="translate(4.000000, 0.000000)">
                    <polygon id="Stroke-1" stroke="#565656" stroke-width="1.535" points="0.491666667 69.2319266 49.0775641 69.2319266 49.0775641 9.41981651 0.491666667 9.41981651"></polygon>
                    <polyline id="Stroke-3" stroke="#565656" stroke-width="1.535" points="40.5283333 14.3277156 44.0225641 14.3277156 44.0225641 64.325055 5.54692308 64.325055 5.54692308 14.3277156 9.14371795 14.3277156"></polyline>
                    <g id="Group-22" transform="translate(0.000000, 0.367339)">
                        <path d="M36.0035897,32.7337982 L13.5657692,32.7337982 C11.9074359,32.7337982 10.5625641,31.3864587 10.5625641,29.7250826 L10.5625641,28.8401284 C10.5625641,27.1787523 11.9074359,25.8314128 13.5657692,25.8314128 L36.0035897,25.8314128 C37.6625641,25.8314128 39.0074359,27.1787523 39.0074359,28.8401284 L39.0074359,29.7250826 C39.0074359,31.3864587 37.6625641,32.7337982 36.0035897,32.7337982 Z" id="Stroke-4" stroke="#565656" stroke-width="1.535"></path>
                        <polyline id="Stroke-6" stroke="#F28F63" stroke-width="1.535" points="30.7414103 29.2725229 32.3176923 30.851055 35.4491026 27.7138991"></polyline>
                        <path d="M36.0035897,43.3363578 L13.5657692,43.3363578 C11.9074359,43.3363578 10.5625641,41.9890183 10.5625641,40.3276422 L10.5625641,39.4426881 C10.5625641,37.7813119 11.9074359,36.4339725 13.5657692,36.4339725 L36.0035897,36.4339725 C37.6625641,36.4339725 39.0074359,37.7813119 39.0074359,39.4426881 L39.0074359,40.3276422 C39.0074359,41.9890183 37.6625641,43.3363578 36.0035897,43.3363578 Z" id="Stroke-8" stroke="#565656" stroke-width="1.535"></path>
                        <polyline id="Stroke-10" stroke="#F28F63" stroke-width="1.535" points="30.7414103 39.8751468 32.3176923 41.4536789 35.4491026 38.3165229"></polyline>
                        <path d="M36.0035897,53.9389817 L13.5657692,53.9389817 C11.9074359,53.9389817 10.5625641,52.5916422 10.5625641,50.9302661 L10.5625641,50.0453119 C10.5625641,48.3839358 11.9074359,47.0365963 13.5657692,47.0365963 L36.0035897,47.0365963 C37.6625641,47.0365963 39.0074359,48.3839358 39.0074359,50.0453119 L39.0074359,50.9302661 C39.0074359,52.5916422 37.6625641,53.9389817 36.0035897,53.9389817 Z" id="Stroke-12" stroke="#565656" stroke-width="1.535"></path>
                        <polyline id="Stroke-14" stroke="#F28F63" stroke-width="1.535" points="30.7414103 50.4774495 32.3176923 52.0559817 35.4491026 48.9188257"></polyline>
                        <path d="M24.785,3.25801835 C25.9080769,3.25801835 26.8189744,4.16994495 26.8189744,5.29572477 C26.8189744,6.42086239 25.9080769,7.33343119 24.785,7.33343119 C23.6612821,7.33343119 22.7503846,6.42086239 22.7503846,5.29572477 C22.7503846,4.16994495 23.6612821,3.25801835 24.785,3.25801835 M37.7734615,7.20563303 L29.3048718,7.20563303 L29.3048718,4.25921101 C29.3048718,2.3306789 27.7439744,0.767559633 25.8196154,0.767559633 L23.7503846,0.767559633 C21.8253846,0.767559633 20.2651282,2.3306789 20.2651282,4.25921101 L20.2651282,7.20563303 L11.7958974,7.20563303 C10.3311538,7.20563303 9.14397436,8.39563303 9.14397436,9.86306422 L9.14397436,13.3187523 L40.4253846,13.3187523 L40.4253846,9.86306422 C40.4253846,8.39563303 39.2388462,7.20563303 37.7734615,7.20563303" id="Fill-16" fill="#565656"></path>
                        <path d="M24.785,3.25801835 C25.9080769,3.25801835 26.8189744,4.16994495 26.8189744,5.29572477 C26.8189744,6.42086239 25.9080769,7.33343119 24.785,7.33343119 C23.6612821,7.33343119 22.7503846,6.42086239 22.7503846,5.29572477 C22.7503846,4.16994495 23.6612821,3.25801835 24.785,3.25801835 Z M37.7734615,7.20563303 L29.3048718,7.20563303 L29.3048718,4.25921101 C29.3048718,2.3306789 27.7439744,0.767559633 25.8196154,0.767559633 L23.7503846,0.767559633 C21.8253846,0.767559633 20.2651282,2.3306789 20.2651282,4.25921101 L20.2651282,7.20563303 L11.7958974,7.20563303 C10.3311538,7.20563303 9.14397436,8.39563303 9.14397436,9.86306422 L9.14397436,13.3187523 L40.4253846,13.3187523 L40.4253846,9.86306422 C40.4253846,8.39563303 39.2388462,7.20563303 37.7734615,7.20563303 Z" id="Stroke-18" stroke="#565656" stroke-width="1.535"></path>
                        <mask id="mask-2" fill="white">
                            <use xlink:href="#path-1"></use>
                        </mask>
                        <g id="Clip-21"></g>
                        <polygon id="Stroke-20" stroke="#565656" stroke-width="1.535" mask="url(#mask-2)" points="9.14358974 17.0697248 40.425641 17.0697248 40.425641 13.3186239 9.14358974 13.3186239"></polygon>
                    </g>
                </g>
            </g>
        </g>
    </g>
</svg>